# xmcd CD database file
#
# Track frame offsets:
#	182
#	12460
#	34832
#	48380
#	61665
#	79165
#	91982
#	112652
#	127822
#	166262
#
# Disc length: 2481 seconds
#
# Revision: 0
# Processed by: cddbd v1.4PL0 Copyright (c) Steve Scherf et al.
# Submitted via: CDex 1.50Beta7
#
DISCID=6d09af0a
DTITLE=Ahmad Jamal - The Ahmad Jamal Trio
DYEAR=1989
DGENRE=Jazz
TTITLE0=Autumn leaves
TTITLE1=Crazy he calls me
TTITLE2=They can't take that away
TTITLE3=It's easy to remember
TTITLE4=Squeeze me
TTITLE5=Something to remember you by
TTITLE6=Poinciana (the song of the Tree)
TTITLE7=The donkey serenade
TTITLE8=Love for sale
TTITLE9=Pavanne
EXTD=YEAR: 1989
EXTT0=
EXTT1=
EXTT2=
EXTT3=
EXTT4=
EXTT5=
EXTT6=
EXTT7=
EXTT8=
EXTT9=
PLAYORDER=
